<mxfile host="app.diagrams.net" agent="Mozilla/5.0 (Windows NT 10.0; Win64; x64) AppleWebKit/537.36 (KHTML, like Gecko) Chrome/132.0.0.0 Safari/537.36 OPR/117.0.0.0" version="26.1.1">
  <diagram id="C5RBs43oDa-KdzZeNtuy" name="Page-1">
    <mxGraphModel dx="819" dy="518" grid="1" gridSize="10" guides="1" tooltips="1" connect="1" arrows="1" fold="1" page="1" pageScale="1" pageWidth="827" pageHeight="1169" math="0" shadow="0">
      <root>
        <mxCell id="WIyWlLk6GJQsqaUBKTNV-0" />
        <mxCell id="WIyWlLk6GJQsqaUBKTNV-1" parent="WIyWlLk6GJQsqaUBKTNV-0" />
        <mxCell id="RP9aOt1CggdTeVN1eFet-0" value="King Check&amp;nbsp;" style="ellipse;whiteSpace=wrap;html=1;" vertex="1" parent="WIyWlLk6GJQsqaUBKTNV-1">
          <mxGeometry x="140" y="40" width="120" height="80" as="geometry" />
        </mxCell>
        <mxCell id="RP9aOt1CggdTeVN1eFet-1" value="" style="endArrow=classic;html=1;rounded=0;" edge="1" parent="WIyWlLk6GJQsqaUBKTNV-1">
          <mxGeometry width="50" height="50" relative="1" as="geometry">
            <mxPoint x="199.71" y="120" as="sourcePoint" />
            <mxPoint x="200" y="170" as="targetPoint" />
          </mxGeometry>
        </mxCell>
        <mxCell id="RP9aOt1CggdTeVN1eFet-2" value="&lt;div&gt;&lt;br&gt;&lt;/div&gt;Is it the king turn?" style="rhombus;whiteSpace=wrap;html=1;" vertex="1" parent="WIyWlLk6GJQsqaUBKTNV-1">
          <mxGeometry x="160" y="168" width="80" height="80" as="geometry" />
        </mxCell>
        <mxCell id="RP9aOt1CggdTeVN1eFet-5" value="" style="endArrow=classic;html=1;rounded=0;" edge="1" parent="WIyWlLk6GJQsqaUBKTNV-1" source="RP9aOt1CggdTeVN1eFet-3">
          <mxGeometry width="50" height="50" relative="1" as="geometry">
            <mxPoint x="200" y="248" as="sourcePoint" />
            <mxPoint x="200" y="288" as="targetPoint" />
          </mxGeometry>
        </mxCell>
        <mxCell id="RP9aOt1CggdTeVN1eFet-6" value="" style="endArrow=classic;html=1;rounded=0;" edge="1" parent="WIyWlLk6GJQsqaUBKTNV-1" source="RP9aOt1CggdTeVN1eFet-4">
          <mxGeometry width="50" height="50" relative="1" as="geometry">
            <mxPoint x="240" y="207.71" as="sourcePoint" />
            <mxPoint x="290" y="207.71" as="targetPoint" />
          </mxGeometry>
        </mxCell>
        <mxCell id="RP9aOt1CggdTeVN1eFet-7" value="&lt;div&gt;&lt;br&gt;&lt;/div&gt;Is the king in check?" style="rhombus;whiteSpace=wrap;html=1;" vertex="1" parent="WIyWlLk6GJQsqaUBKTNV-1">
          <mxGeometry x="160" y="288" width="80" height="80" as="geometry" />
        </mxCell>
        <mxCell id="RP9aOt1CggdTeVN1eFet-10" value="" style="endArrow=classic;html=1;rounded=0;" edge="1" parent="WIyWlLk6GJQsqaUBKTNV-1" source="RP9aOt1CggdTeVN1eFet-8">
          <mxGeometry width="50" height="50" relative="1" as="geometry">
            <mxPoint x="200" y="368" as="sourcePoint" />
            <mxPoint x="200" y="408" as="targetPoint" />
          </mxGeometry>
        </mxCell>
        <mxCell id="RP9aOt1CggdTeVN1eFet-11" value="" style="endArrow=classic;html=1;rounded=0;" edge="1" parent="WIyWlLk6GJQsqaUBKTNV-1" source="RP9aOt1CggdTeVN1eFet-9">
          <mxGeometry width="50" height="50" relative="1" as="geometry">
            <mxPoint x="240" y="327.71" as="sourcePoint" />
            <mxPoint x="290" y="328" as="targetPoint" />
          </mxGeometry>
        </mxCell>
        <mxCell id="RP9aOt1CggdTeVN1eFet-12" value="&lt;div&gt;&lt;br&gt;&lt;/div&gt;Can the king move out of check?" style="rhombus;whiteSpace=wrap;html=1;" vertex="1" parent="WIyWlLk6GJQsqaUBKTNV-1">
          <mxGeometry x="155" y="410" width="90" height="80" as="geometry" />
        </mxCell>
        <mxCell id="RP9aOt1CggdTeVN1eFet-13" value="" style="endArrow=classic;html=1;rounded=0;" edge="1" parent="WIyWlLk6GJQsqaUBKTNV-1" source="RP9aOt1CggdTeVN1eFet-15">
          <mxGeometry width="50" height="50" relative="1" as="geometry">
            <mxPoint x="199.43" y="490" as="sourcePoint" />
            <mxPoint x="199.43" y="530" as="targetPoint" />
          </mxGeometry>
        </mxCell>
        <mxCell id="RP9aOt1CggdTeVN1eFet-14" value="" style="endArrow=classic;html=1;rounded=0;" edge="1" parent="WIyWlLk6GJQsqaUBKTNV-1" source="RP9aOt1CggdTeVN1eFet-16">
          <mxGeometry width="50" height="50" relative="1" as="geometry">
            <mxPoint x="245" y="449.42999999999995" as="sourcePoint" />
            <mxPoint x="305" y="449.42999999999995" as="targetPoint" />
          </mxGeometry>
        </mxCell>
        <mxCell id="RP9aOt1CggdTeVN1eFet-17" value="King is safe" style="ellipse;whiteSpace=wrap;html=1;" vertex="1" parent="WIyWlLk6GJQsqaUBKTNV-1">
          <mxGeometry x="10" y="530" width="120" height="80" as="geometry" />
        </mxCell>
        <mxCell id="RP9aOt1CggdTeVN1eFet-18" value="" style="endArrow=classic;html=1;rounded=0;" edge="1" parent="WIyWlLk6GJQsqaUBKTNV-1" target="RP9aOt1CggdTeVN1eFet-4">
          <mxGeometry width="50" height="50" relative="1" as="geometry">
            <mxPoint x="240" y="207.71" as="sourcePoint" />
            <mxPoint x="290" y="207.71" as="targetPoint" />
          </mxGeometry>
        </mxCell>
        <mxCell id="RP9aOt1CggdTeVN1eFet-4" value="No" style="text;strokeColor=none;fillColor=none;align=left;verticalAlign=top;spacingLeft=4;spacingRight=4;overflow=hidden;rotatable=0;points=[[0,0.5],[1,0.5]];portConstraint=eastwest;whiteSpace=wrap;html=1;" vertex="1" parent="WIyWlLk6GJQsqaUBKTNV-1">
          <mxGeometry x="245" y="200" width="30" height="16" as="geometry" />
        </mxCell>
        <mxCell id="RP9aOt1CggdTeVN1eFet-19" value="" style="endArrow=classic;html=1;rounded=0;" edge="1" parent="WIyWlLk6GJQsqaUBKTNV-1" target="RP9aOt1CggdTeVN1eFet-3">
          <mxGeometry width="50" height="50" relative="1" as="geometry">
            <mxPoint x="200" y="248" as="sourcePoint" />
            <mxPoint x="200" y="288" as="targetPoint" />
          </mxGeometry>
        </mxCell>
        <mxCell id="RP9aOt1CggdTeVN1eFet-3" value="Yes" style="text;strokeColor=none;fillColor=none;align=left;verticalAlign=top;spacingLeft=4;spacingRight=4;overflow=hidden;rotatable=0;points=[[0,0.5],[1,0.5]];portConstraint=eastwest;whiteSpace=wrap;html=1;" vertex="1" parent="WIyWlLk6GJQsqaUBKTNV-1">
          <mxGeometry x="180" y="248" width="40" height="20" as="geometry" />
        </mxCell>
        <mxCell id="RP9aOt1CggdTeVN1eFet-20" value="" style="endArrow=classic;html=1;rounded=0;" edge="1" parent="WIyWlLk6GJQsqaUBKTNV-1" target="RP9aOt1CggdTeVN1eFet-9">
          <mxGeometry width="50" height="50" relative="1" as="geometry">
            <mxPoint x="240" y="327.71" as="sourcePoint" />
            <mxPoint x="290" y="327.71" as="targetPoint" />
          </mxGeometry>
        </mxCell>
        <mxCell id="RP9aOt1CggdTeVN1eFet-9" value="No" style="text;strokeColor=none;fillColor=none;align=left;verticalAlign=top;spacingLeft=4;spacingRight=4;overflow=hidden;rotatable=0;points=[[0,0.5],[1,0.5]];portConstraint=eastwest;whiteSpace=wrap;html=1;" vertex="1" parent="WIyWlLk6GJQsqaUBKTNV-1">
          <mxGeometry x="240" y="320" width="30" height="16" as="geometry" />
        </mxCell>
        <mxCell id="RP9aOt1CggdTeVN1eFet-21" value="" style="endArrow=classic;html=1;rounded=0;" edge="1" parent="WIyWlLk6GJQsqaUBKTNV-1" target="RP9aOt1CggdTeVN1eFet-16">
          <mxGeometry width="50" height="50" relative="1" as="geometry">
            <mxPoint x="245" y="449.42999999999995" as="sourcePoint" />
            <mxPoint x="305" y="449.42999999999995" as="targetPoint" />
          </mxGeometry>
        </mxCell>
        <mxCell id="RP9aOt1CggdTeVN1eFet-16" value="No" style="text;strokeColor=none;fillColor=none;align=left;verticalAlign=top;spacingLeft=4;spacingRight=4;overflow=hidden;rotatable=0;points=[[0,0.5],[1,0.5]];portConstraint=eastwest;whiteSpace=wrap;html=1;" vertex="1" parent="WIyWlLk6GJQsqaUBKTNV-1">
          <mxGeometry x="250" y="442" width="30" height="16" as="geometry" />
        </mxCell>
        <mxCell id="RP9aOt1CggdTeVN1eFet-22" value="" style="endArrow=classic;html=1;rounded=0;" edge="1" parent="WIyWlLk6GJQsqaUBKTNV-1" target="RP9aOt1CggdTeVN1eFet-8">
          <mxGeometry width="50" height="50" relative="1" as="geometry">
            <mxPoint x="200" y="368" as="sourcePoint" />
            <mxPoint x="200" y="408" as="targetPoint" />
          </mxGeometry>
        </mxCell>
        <mxCell id="RP9aOt1CggdTeVN1eFet-8" value="Yes" style="text;strokeColor=none;fillColor=none;align=left;verticalAlign=top;spacingLeft=4;spacingRight=4;overflow=hidden;rotatable=0;points=[[0,0.5],[1,0.5]];portConstraint=eastwest;whiteSpace=wrap;html=1;" vertex="1" parent="WIyWlLk6GJQsqaUBKTNV-1">
          <mxGeometry x="180" y="368" width="40" height="20" as="geometry" />
        </mxCell>
        <mxCell id="RP9aOt1CggdTeVN1eFet-23" value="" style="endArrow=classic;html=1;rounded=0;" edge="1" parent="WIyWlLk6GJQsqaUBKTNV-1" target="RP9aOt1CggdTeVN1eFet-15">
          <mxGeometry width="50" height="50" relative="1" as="geometry">
            <mxPoint x="199.43" y="490" as="sourcePoint" />
            <mxPoint x="199.43" y="530" as="targetPoint" />
          </mxGeometry>
        </mxCell>
        <mxCell id="RP9aOt1CggdTeVN1eFet-15" value="Yes" style="text;strokeColor=none;fillColor=none;align=left;verticalAlign=top;spacingLeft=4;spacingRight=4;overflow=hidden;rotatable=0;points=[[0,0.5],[1,0.5]];portConstraint=eastwest;whiteSpace=wrap;html=1;" vertex="1" parent="WIyWlLk6GJQsqaUBKTNV-1">
          <mxGeometry x="180" y="490" width="40" height="20" as="geometry" />
        </mxCell>
        <mxCell id="RP9aOt1CggdTeVN1eFet-24" value="Rook movement" style="ellipse;whiteSpace=wrap;html=1;" vertex="1" parent="WIyWlLk6GJQsqaUBKTNV-1">
          <mxGeometry x="140" y="620" width="120" height="80" as="geometry" />
        </mxCell>
        <mxCell id="RP9aOt1CggdTeVN1eFet-25" value="" style="endArrow=classic;html=1;rounded=0;" edge="1" parent="WIyWlLk6GJQsqaUBKTNV-1" source="RP9aOt1CggdTeVN1eFet-24">
          <mxGeometry width="50" height="50" relative="1" as="geometry">
            <mxPoint x="200" y="750" as="sourcePoint" />
            <mxPoint x="200" y="730" as="targetPoint" />
          </mxGeometry>
        </mxCell>
        <mxCell id="RP9aOt1CggdTeVN1eFet-26" value="&lt;div&gt;&lt;br&gt;&lt;/div&gt;Horizontal or Vertical" style="rhombus;whiteSpace=wrap;html=1;" vertex="1" parent="WIyWlLk6GJQsqaUBKTNV-1">
          <mxGeometry x="160" y="730" width="80" height="80" as="geometry" />
        </mxCell>
        <mxCell id="RP9aOt1CggdTeVN1eFet-27" value="" style="endArrow=classic;html=1;rounded=0;" edge="1" parent="WIyWlLk6GJQsqaUBKTNV-1" source="RP9aOt1CggdTeVN1eFet-45">
          <mxGeometry width="50" height="50" relative="1" as="geometry">
            <mxPoint x="240" y="770" as="sourcePoint" />
            <mxPoint x="280" y="770" as="targetPoint" />
          </mxGeometry>
        </mxCell>
        <mxCell id="RP9aOt1CggdTeVN1eFet-35" value="" style="strokeWidth=2;html=1;shape=mxgraph.flowchart.annotation_2;align=left;labelPosition=right;pointerEvents=1;rotation=90;" vertex="1" parent="WIyWlLk6GJQsqaUBKTNV-1">
          <mxGeometry x="167.5" y="792.5" width="65" height="100" as="geometry" />
        </mxCell>
        <mxCell id="RP9aOt1CggdTeVN1eFet-36" value="" style="endArrow=classic;html=1;rounded=0;" edge="1" parent="WIyWlLk6GJQsqaUBKTNV-1" target="RP9aOt1CggdTeVN1eFet-44">
          <mxGeometry width="50" height="50" relative="1" as="geometry">
            <mxPoint x="250" y="870" as="sourcePoint" />
            <mxPoint x="210" y="900" as="targetPoint" />
            <Array as="points" />
          </mxGeometry>
        </mxCell>
        <mxCell id="RP9aOt1CggdTeVN1eFet-37" value="" style="endArrow=classic;html=1;rounded=0;entryX=0.339;entryY=0.169;entryDx=0;entryDy=0;entryPerimeter=0;" edge="1" parent="WIyWlLk6GJQsqaUBKTNV-1" target="RP9aOt1CggdTeVN1eFet-44">
          <mxGeometry width="50" height="50" relative="1" as="geometry">
            <mxPoint x="150" y="870" as="sourcePoint" />
            <mxPoint x="180" y="900" as="targetPoint" />
          </mxGeometry>
        </mxCell>
        <mxCell id="RP9aOt1CggdTeVN1eFet-38" value="Horizonal" style="text;strokeColor=none;fillColor=none;align=left;verticalAlign=top;spacingLeft=4;spacingRight=4;overflow=hidden;rotatable=0;points=[[0,0.5],[1,0.5]];portConstraint=eastwest;whiteSpace=wrap;html=1;" vertex="1" parent="WIyWlLk6GJQsqaUBKTNV-1">
          <mxGeometry x="130" y="810" width="60" height="26" as="geometry" />
        </mxCell>
        <mxCell id="RP9aOt1CggdTeVN1eFet-39" value="Vertical" style="text;strokeColor=none;fillColor=none;align=left;verticalAlign=top;spacingLeft=4;spacingRight=4;overflow=hidden;rotatable=0;points=[[0,0.5],[1,0.5]];portConstraint=eastwest;whiteSpace=wrap;html=1;" vertex="1" parent="WIyWlLk6GJQsqaUBKTNV-1">
          <mxGeometry x="200" y="810" width="60" height="26" as="geometry" />
        </mxCell>
        <mxCell id="RP9aOt1CggdTeVN1eFet-41" value="Invalid move&amp;nbsp;" style="rounded=0;whiteSpace=wrap;html=1;" vertex="1" parent="WIyWlLk6GJQsqaUBKTNV-1">
          <mxGeometry x="280" y="755" width="70" height="30" as="geometry" />
        </mxCell>
        <mxCell id="RP9aOt1CggdTeVN1eFet-43" value="" style="endArrow=classic;html=1;rounded=0;entryX=0.985;entryY=0.732;entryDx=0;entryDy=0;entryPerimeter=0;" edge="1" parent="WIyWlLk6GJQsqaUBKTNV-1" target="RP9aOt1CggdTeVN1eFet-24">
          <mxGeometry width="50" height="50" relative="1" as="geometry">
            <mxPoint x="310" y="755" as="sourcePoint" />
            <mxPoint x="360" y="705" as="targetPoint" />
          </mxGeometry>
        </mxCell>
        <mxCell id="RP9aOt1CggdTeVN1eFet-44" value="&lt;div&gt;&lt;span style=&quot;background-color: transparent; color: light-dark(rgb(0, 0, 0), rgb(255, 255, 255));&quot;&gt;&lt;br&gt;&lt;/span&gt;&lt;/div&gt;&lt;div&gt;&lt;span style=&quot;background-color: transparent; color: light-dark(rgb(0, 0, 0), rgb(255, 255, 255));&quot;&gt;Any pieces blocking&amp;nbsp;&lt;/span&gt;&lt;/div&gt;&lt;div&gt;&lt;span style=&quot;background-color: transparent; color: light-dark(rgb(0, 0, 0), rgb(255, 255, 255));&quot;&gt;path&lt;/span&gt;&lt;/div&gt;" style="rhombus;whiteSpace=wrap;html=1;" vertex="1" parent="WIyWlLk6GJQsqaUBKTNV-1">
          <mxGeometry x="155" y="892.5" width="80" height="80" as="geometry" />
        </mxCell>
        <mxCell id="RP9aOt1CggdTeVN1eFet-46" value="" style="endArrow=classic;html=1;rounded=0;" edge="1" parent="WIyWlLk6GJQsqaUBKTNV-1" target="RP9aOt1CggdTeVN1eFet-45">
          <mxGeometry width="50" height="50" relative="1" as="geometry">
            <mxPoint x="240" y="770" as="sourcePoint" />
            <mxPoint x="280" y="770" as="targetPoint" />
          </mxGeometry>
        </mxCell>
        <mxCell id="RP9aOt1CggdTeVN1eFet-45" value="No" style="text;strokeColor=none;fillColor=none;align=left;verticalAlign=top;spacingLeft=4;spacingRight=4;overflow=hidden;rotatable=0;points=[[0,0.5],[1,0.5]];portConstraint=eastwest;whiteSpace=wrap;html=1;" vertex="1" parent="WIyWlLk6GJQsqaUBKTNV-1">
          <mxGeometry x="240" y="755" width="30" height="16" as="geometry" />
        </mxCell>
        <mxCell id="RP9aOt1CggdTeVN1eFet-47" value="" style="endArrow=classic;html=1;rounded=0;" edge="1" parent="WIyWlLk6GJQsqaUBKTNV-1" source="RP9aOt1CggdTeVN1eFet-49">
          <mxGeometry width="50" height="50" relative="1" as="geometry">
            <mxPoint x="236.25" y="932.21" as="sourcePoint" />
            <mxPoint x="283.75" y="932.21" as="targetPoint" />
          </mxGeometry>
        </mxCell>
        <mxCell id="RP9aOt1CggdTeVN1eFet-48" value="" style="endArrow=classic;html=1;rounded=0;" edge="1" parent="WIyWlLk6GJQsqaUBKTNV-1" source="RP9aOt1CggdTeVN1eFet-51">
          <mxGeometry width="50" height="50" relative="1" as="geometry">
            <mxPoint x="195" y="972.5" as="sourcePoint" />
            <mxPoint x="195" y="1010" as="targetPoint" />
          </mxGeometry>
        </mxCell>
        <mxCell id="RP9aOt1CggdTeVN1eFet-50" value="" style="endArrow=classic;html=1;rounded=0;" edge="1" parent="WIyWlLk6GJQsqaUBKTNV-1" target="RP9aOt1CggdTeVN1eFet-49">
          <mxGeometry width="50" height="50" relative="1" as="geometry">
            <mxPoint x="236.25" y="932.21" as="sourcePoint" />
            <mxPoint x="283.75" y="932.21" as="targetPoint" />
          </mxGeometry>
        </mxCell>
        <mxCell id="RP9aOt1CggdTeVN1eFet-49" value="Yes" style="text;strokeColor=none;fillColor=none;align=left;verticalAlign=top;spacingLeft=4;spacingRight=4;overflow=hidden;rotatable=0;points=[[0,0.5],[1,0.5]];portConstraint=eastwest;whiteSpace=wrap;html=1;" vertex="1" parent="WIyWlLk6GJQsqaUBKTNV-1">
          <mxGeometry x="240" y="920" width="40" height="20" as="geometry" />
        </mxCell>
        <mxCell id="RP9aOt1CggdTeVN1eFet-52" value="" style="endArrow=classic;html=1;rounded=0;" edge="1" parent="WIyWlLk6GJQsqaUBKTNV-1" target="RP9aOt1CggdTeVN1eFet-51">
          <mxGeometry width="50" height="50" relative="1" as="geometry">
            <mxPoint x="195" y="972.5" as="sourcePoint" />
            <mxPoint x="195" y="1000" as="targetPoint" />
          </mxGeometry>
        </mxCell>
        <mxCell id="RP9aOt1CggdTeVN1eFet-51" value="No" style="text;strokeColor=none;fillColor=none;align=left;verticalAlign=top;spacingLeft=4;spacingRight=4;overflow=hidden;rotatable=0;points=[[0,0.5],[1,0.5]];portConstraint=eastwest;whiteSpace=wrap;html=1;" vertex="1" parent="WIyWlLk6GJQsqaUBKTNV-1">
          <mxGeometry x="180" y="972.5" width="30" height="16" as="geometry" />
        </mxCell>
        <mxCell id="RP9aOt1CggdTeVN1eFet-53" value="&lt;div&gt;&lt;br&gt;&lt;/div&gt;Contain opp piece or empty" style="rhombus;whiteSpace=wrap;html=1;" vertex="1" parent="WIyWlLk6GJQsqaUBKTNV-1">
          <mxGeometry x="155" y="1010" width="80" height="80" as="geometry" />
        </mxCell>
        <mxCell id="RP9aOt1CggdTeVN1eFet-54" value="Move piece" style="ellipse;whiteSpace=wrap;html=1;" vertex="1" parent="WIyWlLk6GJQsqaUBKTNV-1">
          <mxGeometry x="150" y="1119" width="90" height="50" as="geometry" />
        </mxCell>
        <mxCell id="RP9aOt1CggdTeVN1eFet-55" value="" style="endArrow=classic;html=1;rounded=0;" edge="1" parent="WIyWlLk6GJQsqaUBKTNV-1" source="RP9aOt1CggdTeVN1eFet-58">
          <mxGeometry width="50" height="50" relative="1" as="geometry">
            <mxPoint x="232.5" y="1049.71" as="sourcePoint" />
            <mxPoint x="287.5" y="1049.71" as="targetPoint" />
          </mxGeometry>
        </mxCell>
        <mxCell id="RP9aOt1CggdTeVN1eFet-56" value="" style="endArrow=classic;html=1;rounded=0;" edge="1" parent="WIyWlLk6GJQsqaUBKTNV-1">
          <mxGeometry width="50" height="50" relative="1" as="geometry">
            <mxPoint x="194.71" y="1090" as="sourcePoint" />
            <mxPoint x="194.71" y="1110" as="targetPoint" />
          </mxGeometry>
        </mxCell>
        <mxCell id="RP9aOt1CggdTeVN1eFet-57" value="Yes" style="text;strokeColor=none;fillColor=none;align=left;verticalAlign=top;spacingLeft=4;spacingRight=4;overflow=hidden;rotatable=0;points=[[0,0.5],[1,0.5]];portConstraint=eastwest;whiteSpace=wrap;html=1;" vertex="1" parent="WIyWlLk6GJQsqaUBKTNV-1">
          <mxGeometry x="200" y="1099" width="40" height="20" as="geometry" />
        </mxCell>
        <mxCell id="RP9aOt1CggdTeVN1eFet-59" value="" style="endArrow=classic;html=1;rounded=0;" edge="1" parent="WIyWlLk6GJQsqaUBKTNV-1" target="RP9aOt1CggdTeVN1eFet-58">
          <mxGeometry width="50" height="50" relative="1" as="geometry">
            <mxPoint x="232.5" y="1049.71" as="sourcePoint" />
            <mxPoint x="287.5" y="1049.71" as="targetPoint" />
          </mxGeometry>
        </mxCell>
        <mxCell id="RP9aOt1CggdTeVN1eFet-58" value="No" style="text;strokeColor=none;fillColor=none;align=left;verticalAlign=top;spacingLeft=4;spacingRight=4;overflow=hidden;rotatable=0;points=[[0,0.5],[1,0.5]];portConstraint=eastwest;whiteSpace=wrap;html=1;" vertex="1" parent="WIyWlLk6GJQsqaUBKTNV-1">
          <mxGeometry x="240" y="1040" width="30" height="16" as="geometry" />
        </mxCell>
        <mxCell id="RP9aOt1CggdTeVN1eFet-60" value="End&amp;nbsp;" style="rounded=0;whiteSpace=wrap;html=1;" vertex="1" parent="WIyWlLk6GJQsqaUBKTNV-1">
          <mxGeometry x="294" y="190" width="56" height="38" as="geometry" />
        </mxCell>
        <mxCell id="RP9aOt1CggdTeVN1eFet-61" value="End king is safe" style="rounded=0;whiteSpace=wrap;html=1;" vertex="1" parent="WIyWlLk6GJQsqaUBKTNV-1">
          <mxGeometry x="290" y="309" width="50" height="38" as="geometry" />
        </mxCell>
        <mxCell id="RP9aOt1CggdTeVN1eFet-62" value="Continue" style="rounded=0;whiteSpace=wrap;html=1;" vertex="1" parent="WIyWlLk6GJQsqaUBKTNV-1">
          <mxGeometry x="310" y="430" width="50" height="40" as="geometry" />
        </mxCell>
        <mxCell id="RP9aOt1CggdTeVN1eFet-63" style="edgeStyle=orthogonalEdgeStyle;rounded=0;orthogonalLoop=1;jettySize=auto;html=1;exitX=1;exitY=1;exitDx=0;exitDy=0;entryX=0.974;entryY=0.857;entryDx=0;entryDy=0;entryPerimeter=0;" edge="1" parent="WIyWlLk6GJQsqaUBKTNV-1" source="RP9aOt1CggdTeVN1eFet-62" target="RP9aOt1CggdTeVN1eFet-62">
          <mxGeometry relative="1" as="geometry" />
        </mxCell>
        <mxCell id="RP9aOt1CggdTeVN1eFet-64" value="&lt;div&gt;&lt;br&gt;&lt;/div&gt;Check/capture piece" style="rhombus;whiteSpace=wrap;html=1;" vertex="1" parent="WIyWlLk6GJQsqaUBKTNV-1">
          <mxGeometry x="160" y="530" width="80" height="80" as="geometry" />
        </mxCell>
        <mxCell id="RP9aOt1CggdTeVN1eFet-65" value="" style="endArrow=classic;html=1;rounded=0;" edge="1" parent="WIyWlLk6GJQsqaUBKTNV-1">
          <mxGeometry width="50" height="50" relative="1" as="geometry">
            <mxPoint x="164" y="569.71" as="sourcePoint" />
            <mxPoint x="130" y="570.21" as="targetPoint" />
          </mxGeometry>
        </mxCell>
        <mxCell id="RP9aOt1CggdTeVN1eFet-66" value="" style="endArrow=classic;html=1;rounded=0;" edge="1" parent="WIyWlLk6GJQsqaUBKTNV-1" source="RP9aOt1CggdTeVN1eFet-68">
          <mxGeometry width="50" height="50" relative="1" as="geometry">
            <mxPoint x="240" y="569.71" as="sourcePoint" />
            <mxPoint x="300" y="569.71" as="targetPoint" />
            <Array as="points">
              <mxPoint x="270" y="569.71" />
            </Array>
          </mxGeometry>
        </mxCell>
        <mxCell id="RP9aOt1CggdTeVN1eFet-67" value="" style="endArrow=classic;html=1;rounded=0;exitX=0;exitY=1;exitDx=0;exitDy=0;" edge="1" parent="WIyWlLk6GJQsqaUBKTNV-1" source="RP9aOt1CggdTeVN1eFet-62" target="RP9aOt1CggdTeVN1eFet-64">
          <mxGeometry width="50" height="50" relative="1" as="geometry">
            <mxPoint x="270" y="540" as="sourcePoint" />
            <mxPoint x="320" y="490" as="targetPoint" />
          </mxGeometry>
        </mxCell>
        <mxCell id="RP9aOt1CggdTeVN1eFet-69" value="Yes" style="text;strokeColor=none;fillColor=none;align=left;verticalAlign=top;spacingLeft=4;spacingRight=4;overflow=hidden;rotatable=0;points=[[0,0.5],[1,0.5]];portConstraint=eastwest;whiteSpace=wrap;html=1;" vertex="1" parent="WIyWlLk6GJQsqaUBKTNV-1">
          <mxGeometry x="127.5" y="540" width="40" height="20" as="geometry" />
        </mxCell>
        <mxCell id="RP9aOt1CggdTeVN1eFet-70" value="" style="endArrow=classic;html=1;rounded=0;" edge="1" parent="WIyWlLk6GJQsqaUBKTNV-1" target="RP9aOt1CggdTeVN1eFet-68">
          <mxGeometry width="50" height="50" relative="1" as="geometry">
            <mxPoint x="240" y="569.71" as="sourcePoint" />
            <mxPoint x="300" y="569.71" as="targetPoint" />
            <Array as="points" />
          </mxGeometry>
        </mxCell>
        <mxCell id="RP9aOt1CggdTeVN1eFet-68" value="No" style="text;strokeColor=none;fillColor=none;align=left;verticalAlign=top;spacingLeft=4;spacingRight=4;overflow=hidden;rotatable=0;points=[[0,0.5],[1,0.5]];portConstraint=eastwest;whiteSpace=wrap;html=1;" vertex="1" parent="WIyWlLk6GJQsqaUBKTNV-1">
          <mxGeometry x="245" y="560" width="30" height="16" as="geometry" />
        </mxCell>
        <mxCell id="RP9aOt1CggdTeVN1eFet-71" value="checkmated" style="rounded=0;whiteSpace=wrap;html=1;" vertex="1" parent="WIyWlLk6GJQsqaUBKTNV-1">
          <mxGeometry x="300" y="550" width="70" height="37" as="geometry" />
        </mxCell>
        <mxCell id="RP9aOt1CggdTeVN1eFet-72" value="Invalid move" style="rounded=0;whiteSpace=wrap;html=1;" vertex="1" parent="WIyWlLk6GJQsqaUBKTNV-1">
          <mxGeometry x="290" y="910" width="50" height="40" as="geometry" />
        </mxCell>
        <mxCell id="RP9aOt1CggdTeVN1eFet-73" value="Destroy piece end turn, take place" style="rounded=0;whiteSpace=wrap;html=1;" vertex="1" parent="WIyWlLk6GJQsqaUBKTNV-1">
          <mxGeometry x="290" y="1010" width="70" height="60" as="geometry" />
        </mxCell>
        <mxCell id="RP9aOt1CggdTeVN1eFet-75" value="" style="endArrow=classic;html=1;rounded=0;" edge="1" parent="WIyWlLk6GJQsqaUBKTNV-1">
          <mxGeometry width="50" height="50" relative="1" as="geometry">
            <mxPoint x="314.71" y="910" as="sourcePoint" />
            <mxPoint x="315" y="790" as="targetPoint" />
          </mxGeometry>
        </mxCell>
        <mxCell id="RP9aOt1CggdTeVN1eFet-76" value="King Movement" style="ellipse;whiteSpace=wrap;html=1;" vertex="1" parent="WIyWlLk6GJQsqaUBKTNV-1">
          <mxGeometry x="600" y="10" width="120" height="80" as="geometry" />
        </mxCell>
        <mxCell id="RP9aOt1CggdTeVN1eFet-77" value="" style="endArrow=classic;html=1;rounded=0;" edge="1" parent="WIyWlLk6GJQsqaUBKTNV-1">
          <mxGeometry width="50" height="50" relative="1" as="geometry">
            <mxPoint x="659.71" y="90" as="sourcePoint" />
            <mxPoint x="659.71" y="120" as="targetPoint" />
          </mxGeometry>
        </mxCell>
        <mxCell id="RP9aOt1CggdTeVN1eFet-78" value="&lt;div&gt;&lt;span style=&quot;background-color: transparent; color: light-dark(rgb(0, 0, 0), rgb(255, 255, 255));&quot;&gt;Is it&amp;nbsp;&lt;/span&gt;&lt;/div&gt;&lt;div&gt;one&amp;nbsp;&lt;span style=&quot;background-color: transparent; color: light-dark(rgb(0, 0, 0), rgb(255, 255, 255));&quot;&gt;space away&lt;/span&gt;&lt;/div&gt;" style="rhombus;whiteSpace=wrap;html=1;" vertex="1" parent="WIyWlLk6GJQsqaUBKTNV-1">
          <mxGeometry x="620" y="120" width="80" height="80" as="geometry" />
        </mxCell>
        <mxCell id="RP9aOt1CggdTeVN1eFet-79" value="" style="endArrow=classic;html=1;rounded=0;" edge="1" parent="WIyWlLk6GJQsqaUBKTNV-1" source="RP9aOt1CggdTeVN1eFet-84">
          <mxGeometry width="50" height="50" relative="1" as="geometry">
            <mxPoint x="659.71" y="200" as="sourcePoint" />
            <mxPoint x="660" y="240" as="targetPoint" />
          </mxGeometry>
        </mxCell>
        <mxCell id="RP9aOt1CggdTeVN1eFet-80" value="" style="endArrow=classic;html=1;rounded=0;" edge="1" parent="WIyWlLk6GJQsqaUBKTNV-1" source="RP9aOt1CggdTeVN1eFet-83">
          <mxGeometry width="50" height="50" relative="1" as="geometry">
            <mxPoint x="620" y="159.71" as="sourcePoint" />
            <mxPoint x="580" y="159.71" as="targetPoint" />
          </mxGeometry>
        </mxCell>
        <mxCell id="RP9aOt1CggdTeVN1eFet-81" value="Invalid choice" style="rounded=0;whiteSpace=wrap;html=1;" vertex="1" parent="WIyWlLk6GJQsqaUBKTNV-1">
          <mxGeometry x="520" y="140" width="60" height="40" as="geometry" />
        </mxCell>
        <mxCell id="RP9aOt1CggdTeVN1eFet-82" value="" style="endArrow=classic;html=1;rounded=0;entryX=0.185;entryY=0.821;entryDx=0;entryDy=0;entryPerimeter=0;" edge="1" parent="WIyWlLk6GJQsqaUBKTNV-1" target="RP9aOt1CggdTeVN1eFet-76">
          <mxGeometry width="50" height="50" relative="1" as="geometry">
            <mxPoint x="560" y="140" as="sourcePoint" />
            <mxPoint x="610" y="90" as="targetPoint" />
          </mxGeometry>
        </mxCell>
        <mxCell id="RP9aOt1CggdTeVN1eFet-85" value="" style="endArrow=classic;html=1;rounded=0;" edge="1" parent="WIyWlLk6GJQsqaUBKTNV-1" target="RP9aOt1CggdTeVN1eFet-83">
          <mxGeometry width="50" height="50" relative="1" as="geometry">
            <mxPoint x="620" y="159.71" as="sourcePoint" />
            <mxPoint x="580" y="159.71" as="targetPoint" />
          </mxGeometry>
        </mxCell>
        <mxCell id="RP9aOt1CggdTeVN1eFet-83" value="No" style="text;strokeColor=none;fillColor=none;align=left;verticalAlign=top;spacingLeft=4;spacingRight=4;overflow=hidden;rotatable=0;points=[[0,0.5],[1,0.5]];portConstraint=eastwest;whiteSpace=wrap;html=1;" vertex="1" parent="WIyWlLk6GJQsqaUBKTNV-1">
          <mxGeometry x="590" y="152" width="30" height="16" as="geometry" />
        </mxCell>
        <mxCell id="RP9aOt1CggdTeVN1eFet-86" value="" style="endArrow=classic;html=1;rounded=0;" edge="1" parent="WIyWlLk6GJQsqaUBKTNV-1" target="RP9aOt1CggdTeVN1eFet-84">
          <mxGeometry width="50" height="50" relative="1" as="geometry">
            <mxPoint x="659.71" y="200" as="sourcePoint" />
            <mxPoint x="660" y="240" as="targetPoint" />
          </mxGeometry>
        </mxCell>
        <mxCell id="RP9aOt1CggdTeVN1eFet-84" value="Yes" style="text;strokeColor=none;fillColor=none;align=left;verticalAlign=top;spacingLeft=4;spacingRight=4;overflow=hidden;rotatable=0;points=[[0,0.5],[1,0.5]];portConstraint=eastwest;whiteSpace=wrap;html=1;" vertex="1" parent="WIyWlLk6GJQsqaUBKTNV-1">
          <mxGeometry x="640" y="208" width="40" height="20" as="geometry" />
        </mxCell>
        <mxCell id="RP9aOt1CggdTeVN1eFet-87" value="&lt;div&gt;&lt;br&gt;&lt;/div&gt;What direction&lt;div&gt;D,H,V&lt;/div&gt;" style="rhombus;whiteSpace=wrap;html=1;" vertex="1" parent="WIyWlLk6GJQsqaUBKTNV-1">
          <mxGeometry x="620" y="240" width="80" height="80" as="geometry" />
        </mxCell>
        <mxCell id="RP9aOt1CggdTeVN1eFet-88" value="&lt;div&gt;&lt;br&gt;&lt;/div&gt;Contain opp piece or empty" style="rhombus;whiteSpace=wrap;html=1;" vertex="1" parent="WIyWlLk6GJQsqaUBKTNV-1">
          <mxGeometry x="620" y="350" width="80" height="80" as="geometry" />
        </mxCell>
        <mxCell id="RP9aOt1CggdTeVN1eFet-89" value="" style="endArrow=classic;html=1;rounded=0;" edge="1" parent="WIyWlLk6GJQsqaUBKTNV-1" source="RP9aOt1CggdTeVN1eFet-94">
          <mxGeometry width="50" height="50" relative="1" as="geometry">
            <mxPoint x="659.71" y="318" as="sourcePoint" />
            <mxPoint x="660" y="350" as="targetPoint" />
          </mxGeometry>
        </mxCell>
        <mxCell id="RP9aOt1CggdTeVN1eFet-90" value="" style="endArrow=classic;html=1;rounded=0;" edge="1" parent="WIyWlLk6GJQsqaUBKTNV-1" source="RP9aOt1CggdTeVN1eFet-92">
          <mxGeometry width="50" height="50" relative="1" as="geometry">
            <mxPoint x="620" y="279.71" as="sourcePoint" />
            <mxPoint x="570" y="279.71" as="targetPoint" />
          </mxGeometry>
        </mxCell>
        <mxCell id="RP9aOt1CggdTeVN1eFet-91" value="Invalid choice" style="rounded=0;whiteSpace=wrap;html=1;" vertex="1" parent="WIyWlLk6GJQsqaUBKTNV-1">
          <mxGeometry x="510" y="260" width="60" height="40" as="geometry" />
        </mxCell>
        <mxCell id="RP9aOt1CggdTeVN1eFet-93" value="" style="endArrow=classic;html=1;rounded=0;" edge="1" parent="WIyWlLk6GJQsqaUBKTNV-1" target="RP9aOt1CggdTeVN1eFet-92">
          <mxGeometry width="50" height="50" relative="1" as="geometry">
            <mxPoint x="620" y="279.71" as="sourcePoint" />
            <mxPoint x="570" y="279.71" as="targetPoint" />
          </mxGeometry>
        </mxCell>
        <mxCell id="RP9aOt1CggdTeVN1eFet-92" value="No" style="text;strokeColor=none;fillColor=none;align=left;verticalAlign=top;spacingLeft=4;spacingRight=4;overflow=hidden;rotatable=0;points=[[0,0.5],[1,0.5]];portConstraint=eastwest;whiteSpace=wrap;html=1;" vertex="1" parent="WIyWlLk6GJQsqaUBKTNV-1">
          <mxGeometry x="590" y="268" width="30" height="16" as="geometry" />
        </mxCell>
        <mxCell id="RP9aOt1CggdTeVN1eFet-95" value="" style="endArrow=classic;html=1;rounded=0;" edge="1" parent="WIyWlLk6GJQsqaUBKTNV-1" target="RP9aOt1CggdTeVN1eFet-94">
          <mxGeometry width="50" height="50" relative="1" as="geometry">
            <mxPoint x="659.71" y="318" as="sourcePoint" />
            <mxPoint x="660" y="350" as="targetPoint" />
          </mxGeometry>
        </mxCell>
        <mxCell id="RP9aOt1CggdTeVN1eFet-94" value="Yes" style="text;strokeColor=none;fillColor=none;align=left;verticalAlign=top;spacingLeft=4;spacingRight=4;overflow=hidden;rotatable=0;points=[[0,0.5],[1,0.5]];portConstraint=eastwest;whiteSpace=wrap;html=1;" vertex="1" parent="WIyWlLk6GJQsqaUBKTNV-1">
          <mxGeometry x="640" y="320" width="40" height="23" as="geometry" />
        </mxCell>
        <mxCell id="RP9aOt1CggdTeVN1eFet-96" value="Invalid choice" style="rounded=0;whiteSpace=wrap;html=1;" vertex="1" parent="WIyWlLk6GJQsqaUBKTNV-1">
          <mxGeometry x="500" y="368" width="60" height="40" as="geometry" />
        </mxCell>
        <mxCell id="RP9aOt1CggdTeVN1eFet-97" value="" style="endArrow=classic;html=1;rounded=0;" edge="1" parent="WIyWlLk6GJQsqaUBKTNV-1" source="RP9aOt1CggdTeVN1eFet-99">
          <mxGeometry width="50" height="50" relative="1" as="geometry">
            <mxPoint x="620" y="389.71000000000004" as="sourcePoint" />
            <mxPoint x="570" y="389.71000000000004" as="targetPoint" />
          </mxGeometry>
        </mxCell>
        <mxCell id="RP9aOt1CggdTeVN1eFet-98" value="" style="endArrow=classic;html=1;rounded=0;" edge="1" parent="WIyWlLk6GJQsqaUBKTNV-1" source="RP9aOt1CggdTeVN1eFet-101">
          <mxGeometry width="50" height="50" relative="1" as="geometry">
            <mxPoint x="659.71" y="430" as="sourcePoint" />
            <mxPoint x="659.71" y="470" as="targetPoint" />
          </mxGeometry>
        </mxCell>
        <mxCell id="RP9aOt1CggdTeVN1eFet-100" value="" style="endArrow=classic;html=1;rounded=0;" edge="1" parent="WIyWlLk6GJQsqaUBKTNV-1" target="RP9aOt1CggdTeVN1eFet-99">
          <mxGeometry width="50" height="50" relative="1" as="geometry">
            <mxPoint x="620" y="389.71000000000004" as="sourcePoint" />
            <mxPoint x="570" y="389.71000000000004" as="targetPoint" />
          </mxGeometry>
        </mxCell>
        <mxCell id="RP9aOt1CggdTeVN1eFet-99" value="No" style="text;strokeColor=none;fillColor=none;align=left;verticalAlign=top;spacingLeft=4;spacingRight=4;overflow=hidden;rotatable=0;points=[[0,0.5],[1,0.5]];portConstraint=eastwest;whiteSpace=wrap;html=1;" vertex="1" parent="WIyWlLk6GJQsqaUBKTNV-1">
          <mxGeometry x="590" y="380" width="30" height="16" as="geometry" />
        </mxCell>
        <mxCell id="RP9aOt1CggdTeVN1eFet-102" value="" style="endArrow=classic;html=1;rounded=0;" edge="1" parent="WIyWlLk6GJQsqaUBKTNV-1" target="RP9aOt1CggdTeVN1eFet-101">
          <mxGeometry width="50" height="50" relative="1" as="geometry">
            <mxPoint x="659.71" y="430" as="sourcePoint" />
            <mxPoint x="659.71" y="470" as="targetPoint" />
          </mxGeometry>
        </mxCell>
        <mxCell id="RP9aOt1CggdTeVN1eFet-101" value="Yes" style="text;strokeColor=none;fillColor=none;align=left;verticalAlign=top;spacingLeft=4;spacingRight=4;overflow=hidden;rotatable=0;points=[[0,0.5],[1,0.5]];portConstraint=eastwest;whiteSpace=wrap;html=1;" vertex="1" parent="WIyWlLk6GJQsqaUBKTNV-1">
          <mxGeometry x="640" y="430" width="40" height="23" as="geometry" />
        </mxCell>
        <mxCell id="RP9aOt1CggdTeVN1eFet-103" value="&lt;div&gt;&lt;br&gt;&lt;/div&gt;Move place in check?" style="rhombus;whiteSpace=wrap;html=1;" vertex="1" parent="WIyWlLk6GJQsqaUBKTNV-1">
          <mxGeometry x="620" y="470" width="80" height="80" as="geometry" />
        </mxCell>
        <mxCell id="RP9aOt1CggdTeVN1eFet-104" value="" style="endArrow=classic;html=1;rounded=0;" edge="1" parent="WIyWlLk6GJQsqaUBKTNV-1" source="RP9aOt1CggdTeVN1eFet-108">
          <mxGeometry width="50" height="50" relative="1" as="geometry">
            <mxPoint x="620" y="510" as="sourcePoint" />
            <mxPoint x="580" y="510" as="targetPoint" />
          </mxGeometry>
        </mxCell>
        <mxCell id="RP9aOt1CggdTeVN1eFet-105" value="" style="endArrow=classic;html=1;rounded=0;" edge="1" parent="WIyWlLk6GJQsqaUBKTNV-1" source="RP9aOt1CggdTeVN1eFet-106">
          <mxGeometry width="50" height="50" relative="1" as="geometry">
            <mxPoint x="659.71" y="550" as="sourcePoint" />
            <mxPoint x="660" y="580" as="targetPoint" />
          </mxGeometry>
        </mxCell>
        <mxCell id="RP9aOt1CggdTeVN1eFet-107" value="" style="endArrow=classic;html=1;rounded=0;" edge="1" parent="WIyWlLk6GJQsqaUBKTNV-1" target="RP9aOt1CggdTeVN1eFet-106">
          <mxGeometry width="50" height="50" relative="1" as="geometry">
            <mxPoint x="659.71" y="550" as="sourcePoint" />
            <mxPoint x="660" y="580" as="targetPoint" />
          </mxGeometry>
        </mxCell>
        <mxCell id="RP9aOt1CggdTeVN1eFet-106" value="Yes" style="text;strokeColor=none;fillColor=none;align=left;verticalAlign=top;spacingLeft=4;spacingRight=4;overflow=hidden;rotatable=0;points=[[0,0.5],[1,0.5]];portConstraint=eastwest;whiteSpace=wrap;html=1;" vertex="1" parent="WIyWlLk6GJQsqaUBKTNV-1">
          <mxGeometry x="640" y="550" width="40" height="23" as="geometry" />
        </mxCell>
        <mxCell id="RP9aOt1CggdTeVN1eFet-109" value="" style="endArrow=classic;html=1;rounded=0;" edge="1" parent="WIyWlLk6GJQsqaUBKTNV-1" target="RP9aOt1CggdTeVN1eFet-108">
          <mxGeometry width="50" height="50" relative="1" as="geometry">
            <mxPoint x="620" y="510" as="sourcePoint" />
            <mxPoint x="580" y="510" as="targetPoint" />
          </mxGeometry>
        </mxCell>
        <mxCell id="RP9aOt1CggdTeVN1eFet-108" value="No" style="text;strokeColor=none;fillColor=none;align=left;verticalAlign=top;spacingLeft=4;spacingRight=4;overflow=hidden;rotatable=0;points=[[0,0.5],[1,0.5]];portConstraint=eastwest;whiteSpace=wrap;html=1;" vertex="1" parent="WIyWlLk6GJQsqaUBKTNV-1">
          <mxGeometry x="590" y="494" width="30" height="16" as="geometry" />
        </mxCell>
        <mxCell id="RP9aOt1CggdTeVN1eFet-110" value="Valid move" style="rounded=0;whiteSpace=wrap;html=1;" vertex="1" parent="WIyWlLk6GJQsqaUBKTNV-1">
          <mxGeometry x="520" y="490" width="60" height="40" as="geometry" />
        </mxCell>
        <mxCell id="RP9aOt1CggdTeVN1eFet-111" value="Run king check" style="rounded=0;whiteSpace=wrap;html=1;" vertex="1" parent="WIyWlLk6GJQsqaUBKTNV-1">
          <mxGeometry x="630" y="585" width="70" height="35" as="geometry" />
        </mxCell>
        <mxCell id="RP9aOt1CggdTeVN1eFet-112" value="Queen Movement&amp;nbsp;" style="ellipse;whiteSpace=wrap;html=1;" vertex="1" parent="WIyWlLk6GJQsqaUBKTNV-1">
          <mxGeometry x="570" y="640" width="120" height="80" as="geometry" />
        </mxCell>
        <mxCell id="RP9aOt1CggdTeVN1eFet-113" value="&lt;div&gt;&lt;br&gt;&lt;/div&gt;What direction&lt;div&gt;D,H,V&lt;/div&gt;" style="rhombus;whiteSpace=wrap;html=1;" vertex="1" parent="WIyWlLk6GJQsqaUBKTNV-1">
          <mxGeometry x="590" y="750" width="80" height="80" as="geometry" />
        </mxCell>
        <mxCell id="RP9aOt1CggdTeVN1eFet-114" value="" style="endArrow=classic;html=1;rounded=0;" edge="1" parent="WIyWlLk6GJQsqaUBKTNV-1">
          <mxGeometry width="50" height="50" relative="1" as="geometry">
            <mxPoint x="630" y="720" as="sourcePoint" />
            <mxPoint x="630" y="750" as="targetPoint" />
          </mxGeometry>
        </mxCell>
        <mxCell id="RP9aOt1CggdTeVN1eFet-115" value="Invalid choice" style="rounded=0;whiteSpace=wrap;html=1;" vertex="1" parent="WIyWlLk6GJQsqaUBKTNV-1">
          <mxGeometry x="490" y="771" width="60" height="40" as="geometry" />
        </mxCell>
        <mxCell id="RP9aOt1CggdTeVN1eFet-118" value="" style="endArrow=classic;html=1;rounded=0;" edge="1" parent="WIyWlLk6GJQsqaUBKTNV-1" source="RP9aOt1CggdTeVN1eFet-117">
          <mxGeometry width="50" height="50" relative="1" as="geometry">
            <mxPoint x="590" y="789.71" as="sourcePoint" />
            <mxPoint x="550" y="789.71" as="targetPoint" />
          </mxGeometry>
        </mxCell>
        <mxCell id="RP9aOt1CggdTeVN1eFet-119" value="" style="endArrow=classic;html=1;rounded=0;" edge="1" parent="WIyWlLk6GJQsqaUBKTNV-1" source="RP9aOt1CggdTeVN1eFet-116">
          <mxGeometry width="50" height="50" relative="1" as="geometry">
            <mxPoint x="629.71" y="830" as="sourcePoint" />
            <mxPoint x="629.71" y="870" as="targetPoint" />
          </mxGeometry>
        </mxCell>
        <mxCell id="RP9aOt1CggdTeVN1eFet-120" value="" style="endArrow=classic;html=1;rounded=0;" edge="1" parent="WIyWlLk6GJQsqaUBKTNV-1" target="RP9aOt1CggdTeVN1eFet-117">
          <mxGeometry width="50" height="50" relative="1" as="geometry">
            <mxPoint x="590" y="789.71" as="sourcePoint" />
            <mxPoint x="550" y="789.71" as="targetPoint" />
          </mxGeometry>
        </mxCell>
        <mxCell id="RP9aOt1CggdTeVN1eFet-117" value="No" style="text;strokeColor=none;fillColor=none;align=left;verticalAlign=top;spacingLeft=4;spacingRight=4;overflow=hidden;rotatable=0;points=[[0,0.5],[1,0.5]];portConstraint=eastwest;whiteSpace=wrap;html=1;" vertex="1" parent="WIyWlLk6GJQsqaUBKTNV-1">
          <mxGeometry x="560" y="776.5" width="30" height="16" as="geometry" />
        </mxCell>
        <mxCell id="RP9aOt1CggdTeVN1eFet-121" value="" style="endArrow=classic;html=1;rounded=0;" edge="1" parent="WIyWlLk6GJQsqaUBKTNV-1" target="RP9aOt1CggdTeVN1eFet-116">
          <mxGeometry width="50" height="50" relative="1" as="geometry">
            <mxPoint x="629.71" y="830" as="sourcePoint" />
            <mxPoint x="629.71" y="870" as="targetPoint" />
          </mxGeometry>
        </mxCell>
        <mxCell id="RP9aOt1CggdTeVN1eFet-116" value="Yes" style="text;strokeColor=none;fillColor=none;align=left;verticalAlign=top;spacingLeft=4;spacingRight=4;overflow=hidden;rotatable=0;points=[[0,0.5],[1,0.5]];portConstraint=eastwest;whiteSpace=wrap;html=1;" vertex="1" parent="WIyWlLk6GJQsqaUBKTNV-1">
          <mxGeometry x="610" y="830" width="40" height="20" as="geometry" />
        </mxCell>
        <mxCell id="RP9aOt1CggdTeVN1eFet-122" value="" style="endArrow=classic;html=1;rounded=0;entryX=0.645;entryY=1.093;entryDx=0;entryDy=0;entryPerimeter=0;" edge="1" parent="WIyWlLk6GJQsqaUBKTNV-1" target="RP9aOt1CggdTeVN1eFet-81">
          <mxGeometry width="50" height="50" relative="1" as="geometry">
            <mxPoint x="528" y="260" as="sourcePoint" />
            <mxPoint x="590" y="196" as="targetPoint" />
          </mxGeometry>
        </mxCell>
        <mxCell id="RP9aOt1CggdTeVN1eFet-123" value="" style="endArrow=classic;html=1;rounded=0;entryX=0.326;entryY=1.121;entryDx=0;entryDy=0;entryPerimeter=0;" edge="1" parent="WIyWlLk6GJQsqaUBKTNV-1" target="RP9aOt1CggdTeVN1eFet-91">
          <mxGeometry width="50" height="50" relative="1" as="geometry">
            <mxPoint x="529" y="368" as="sourcePoint" />
            <mxPoint x="531" y="295" as="targetPoint" />
          </mxGeometry>
        </mxCell>
        <mxCell id="RP9aOt1CggdTeVN1eFet-124" value="" style="endArrow=classic;html=1;rounded=0;entryX=0.083;entryY=0.75;entryDx=0;entryDy=0;entryPerimeter=0;" edge="1" parent="WIyWlLk6GJQsqaUBKTNV-1" target="RP9aOt1CggdTeVN1eFet-112">
          <mxGeometry width="50" height="50" relative="1" as="geometry">
            <mxPoint x="508" y="771" as="sourcePoint" />
            <mxPoint x="570" y="707" as="targetPoint" />
          </mxGeometry>
        </mxCell>
        <mxCell id="RP9aOt1CggdTeVN1eFet-125" value="&lt;div&gt;&lt;br&gt;&lt;/div&gt;Contain opp piece or empty" style="rhombus;whiteSpace=wrap;html=1;" vertex="1" parent="WIyWlLk6GJQsqaUBKTNV-1">
          <mxGeometry x="590" y="976" width="80" height="80" as="geometry" />
        </mxCell>
        <mxCell id="RP9aOt1CggdTeVN1eFet-126" value="Destroy piece end turn, take place" style="rounded=0;whiteSpace=wrap;html=1;" vertex="1" parent="WIyWlLk6GJQsqaUBKTNV-1">
          <mxGeometry x="480" y="986" width="70" height="60" as="geometry" />
        </mxCell>
        <mxCell id="RP9aOt1CggdTeVN1eFet-127" value="&lt;div&gt;&lt;span style=&quot;background-color: transparent; color: light-dark(rgb(0, 0, 0), rgb(255, 255, 255));&quot;&gt;&lt;br&gt;&lt;/span&gt;&lt;/div&gt;&lt;div&gt;&lt;span style=&quot;background-color: transparent; color: light-dark(rgb(0, 0, 0), rgb(255, 255, 255));&quot;&gt;Any pieces blocking&amp;nbsp;&lt;/span&gt;&lt;/div&gt;&lt;div&gt;&lt;span style=&quot;background-color: transparent; color: light-dark(rgb(0, 0, 0), rgb(255, 255, 255));&quot;&gt;path&lt;/span&gt;&lt;/div&gt;" style="rhombus;whiteSpace=wrap;html=1;" vertex="1" parent="WIyWlLk6GJQsqaUBKTNV-1">
          <mxGeometry x="590" y="870" width="80" height="80" as="geometry" />
        </mxCell>
        <mxCell id="RP9aOt1CggdTeVN1eFet-128" value="Continue" style="rounded=0;whiteSpace=wrap;html=1;" vertex="1" parent="WIyWlLk6GJQsqaUBKTNV-1">
          <mxGeometry x="490" y="890" width="50" height="40" as="geometry" />
        </mxCell>
        <mxCell id="RP9aOt1CggdTeVN1eFet-129" value="&lt;div&gt;&lt;br&gt;&lt;/div&gt;Move place in check?" style="rhombus;whiteSpace=wrap;html=1;" vertex="1" parent="WIyWlLk6GJQsqaUBKTNV-1">
          <mxGeometry x="590" y="1080" width="80" height="80" as="geometry" />
        </mxCell>
        <mxCell id="RP9aOt1CggdTeVN1eFet-130" value="Valid move" style="rounded=0;whiteSpace=wrap;html=1;" vertex="1" parent="WIyWlLk6GJQsqaUBKTNV-1">
          <mxGeometry x="480" y="1089" width="60" height="40" as="geometry" />
        </mxCell>
        <mxCell id="RP9aOt1CggdTeVN1eFet-131" value="Run king check" style="rounded=0;whiteSpace=wrap;html=1;" vertex="1" parent="WIyWlLk6GJQsqaUBKTNV-1">
          <mxGeometry x="700" y="1102.5" width="70" height="35" as="geometry" />
        </mxCell>
        <mxCell id="RP9aOt1CggdTeVN1eFet-135" value="" style="endArrow=classic;html=1;rounded=0;" edge="1" parent="WIyWlLk6GJQsqaUBKTNV-1" source="RP9aOt1CggdTeVN1eFet-134">
          <mxGeometry width="50" height="50" relative="1" as="geometry">
            <mxPoint x="629.71" y="946" as="sourcePoint" />
            <mxPoint x="629.71" y="976" as="targetPoint" />
          </mxGeometry>
        </mxCell>
        <mxCell id="RP9aOt1CggdTeVN1eFet-136" value="" style="endArrow=classic;html=1;rounded=0;" edge="1" parent="WIyWlLk6GJQsqaUBKTNV-1">
          <mxGeometry width="50" height="50" relative="1" as="geometry">
            <mxPoint x="629.71" y="1056" as="sourcePoint" />
            <mxPoint x="629.71" y="1086" as="targetPoint" />
          </mxGeometry>
        </mxCell>
        <mxCell id="RP9aOt1CggdTeVN1eFet-138" value="" style="endArrow=classic;html=1;rounded=0;" edge="1" parent="WIyWlLk6GJQsqaUBKTNV-1">
          <mxGeometry width="50" height="50" relative="1" as="geometry">
            <mxPoint x="590" y="1015.71" as="sourcePoint" />
            <mxPoint x="550" y="1015.71" as="targetPoint" />
          </mxGeometry>
        </mxCell>
        <mxCell id="RP9aOt1CggdTeVN1eFet-139" value="" style="endArrow=classic;html=1;rounded=0;" edge="1" parent="WIyWlLk6GJQsqaUBKTNV-1">
          <mxGeometry width="50" height="50" relative="1" as="geometry">
            <mxPoint x="590" y="1118.43" as="sourcePoint" />
            <mxPoint x="550" y="1118.43" as="targetPoint" />
          </mxGeometry>
        </mxCell>
        <mxCell id="RP9aOt1CggdTeVN1eFet-140" value="" style="endArrow=classic;html=1;rounded=0;" edge="1" parent="WIyWlLk6GJQsqaUBKTNV-1">
          <mxGeometry width="50" height="50" relative="1" as="geometry">
            <mxPoint x="670" y="1119.71" as="sourcePoint" />
            <mxPoint x="700" y="1119.71" as="targetPoint" />
          </mxGeometry>
        </mxCell>
        <mxCell id="RP9aOt1CggdTeVN1eFet-141" value="" style="endArrow=classic;html=1;rounded=0;" edge="1" parent="WIyWlLk6GJQsqaUBKTNV-1">
          <mxGeometry width="50" height="50" relative="1" as="geometry">
            <mxPoint x="590" y="909.43" as="sourcePoint" />
            <mxPoint x="590" y="909.4299999999998" as="targetPoint" />
          </mxGeometry>
        </mxCell>
        <mxCell id="RP9aOt1CggdTeVN1eFet-142" value="" style="endArrow=classic;html=1;rounded=0;exitX=0.963;exitY=0.9;exitDx=0;exitDy=0;exitPerimeter=0;" edge="1" parent="WIyWlLk6GJQsqaUBKTNV-1" source="RP9aOt1CggdTeVN1eFet-128" target="RP9aOt1CggdTeVN1eFet-125">
          <mxGeometry width="50" height="50" relative="1" as="geometry">
            <mxPoint x="550" y="930" as="sourcePoint" />
            <mxPoint x="580" y="990" as="targetPoint" />
          </mxGeometry>
        </mxCell>
        <mxCell id="RP9aOt1CggdTeVN1eFet-144" value="" style="endArrow=classic;html=1;rounded=0;" edge="1" parent="WIyWlLk6GJQsqaUBKTNV-1" source="RP9aOt1CggdTeVN1eFet-143">
          <mxGeometry width="50" height="50" relative="1" as="geometry">
            <mxPoint x="590" y="910" as="sourcePoint" />
            <mxPoint x="540" y="909.71" as="targetPoint" />
          </mxGeometry>
        </mxCell>
        <mxCell id="RP9aOt1CggdTeVN1eFet-145" value="" style="endArrow=classic;html=1;rounded=0;" edge="1" parent="WIyWlLk6GJQsqaUBKTNV-1" target="RP9aOt1CggdTeVN1eFet-143">
          <mxGeometry width="50" height="50" relative="1" as="geometry">
            <mxPoint x="590" y="910" as="sourcePoint" />
            <mxPoint x="540" y="909.71" as="targetPoint" />
          </mxGeometry>
        </mxCell>
        <mxCell id="RP9aOt1CggdTeVN1eFet-143" value="Yes" style="text;strokeColor=none;fillColor=none;align=left;verticalAlign=top;spacingLeft=4;spacingRight=4;overflow=hidden;rotatable=0;points=[[0,0.5],[1,0.5]];portConstraint=eastwest;whiteSpace=wrap;html=1;" vertex="1" parent="WIyWlLk6GJQsqaUBKTNV-1">
          <mxGeometry x="555" y="892.5" width="40" height="20" as="geometry" />
        </mxCell>
        <mxCell id="RP9aOt1CggdTeVN1eFet-146" value="" style="endArrow=classic;html=1;rounded=0;" edge="1" parent="WIyWlLk6GJQsqaUBKTNV-1" target="RP9aOt1CggdTeVN1eFet-134">
          <mxGeometry width="50" height="50" relative="1" as="geometry">
            <mxPoint x="629.71" y="946" as="sourcePoint" />
            <mxPoint x="629.71" y="976" as="targetPoint" />
          </mxGeometry>
        </mxCell>
        <mxCell id="RP9aOt1CggdTeVN1eFet-134" value="No" style="text;strokeColor=none;fillColor=none;align=left;verticalAlign=top;spacingLeft=4;spacingRight=4;overflow=hidden;rotatable=0;points=[[0,0.5],[1,0.5]];portConstraint=eastwest;whiteSpace=wrap;html=1;" vertex="1" parent="WIyWlLk6GJQsqaUBKTNV-1">
          <mxGeometry x="615" y="950" width="30" height="16" as="geometry" />
        </mxCell>
        <mxCell id="RP9aOt1CggdTeVN1eFet-147" value="Yes" style="text;strokeColor=none;fillColor=none;align=left;verticalAlign=top;spacingLeft=4;spacingRight=4;overflow=hidden;rotatable=0;points=[[0,0.5],[1,0.5]];portConstraint=eastwest;whiteSpace=wrap;html=1;" vertex="1" parent="WIyWlLk6GJQsqaUBKTNV-1">
          <mxGeometry x="555" y="1020" width="40" height="20" as="geometry" />
        </mxCell>
        <mxCell id="RP9aOt1CggdTeVN1eFet-148" value="Yes" style="text;strokeColor=none;fillColor=none;align=left;verticalAlign=top;spacingLeft=4;spacingRight=4;overflow=hidden;rotatable=0;points=[[0,0.5],[1,0.5]];portConstraint=eastwest;whiteSpace=wrap;html=1;" vertex="1" parent="WIyWlLk6GJQsqaUBKTNV-1">
          <mxGeometry x="660" y="1090" width="40" height="20" as="geometry" />
        </mxCell>
        <mxCell id="RP9aOt1CggdTeVN1eFet-149" value="No" style="text;strokeColor=none;fillColor=none;align=left;verticalAlign=top;spacingLeft=4;spacingRight=4;overflow=hidden;rotatable=0;points=[[0,0.5],[1,0.5]];portConstraint=eastwest;whiteSpace=wrap;html=1;" vertex="1" parent="WIyWlLk6GJQsqaUBKTNV-1">
          <mxGeometry x="630" y="1054" width="30" height="16" as="geometry" />
        </mxCell>
        <mxCell id="RP9aOt1CggdTeVN1eFet-150" value="No" style="text;strokeColor=none;fillColor=none;align=left;verticalAlign=top;spacingLeft=4;spacingRight=4;overflow=hidden;rotatable=0;points=[[0,0.5],[1,0.5]];portConstraint=eastwest;whiteSpace=wrap;html=1;" vertex="1" parent="WIyWlLk6GJQsqaUBKTNV-1">
          <mxGeometry x="560" y="1094" width="30" height="16" as="geometry" />
        </mxCell>
      </root>
    </mxGraphModel>
  </diagram>
</mxfile>
